<svg width="120" height="25" viewBox="0 0 120 25" fill="none" xmlns="http://www.w3.org/2000/svg">
<path d="M1.43821 19V5.90909H3.41335V17.2997H9.34517V19H1.43821ZM14.3022 19.2173C13.68 19.2173 13.1175 19.1023 12.6147 18.8722C12.1119 18.6378 11.7134 18.299 11.4194 17.8558C11.1296 17.4126 10.9847 16.8693 10.9847 16.2259C10.9847 15.6719 11.0913 15.2159 11.3043 14.858C11.5174 14.5 11.805 14.2166 12.1673 14.0078C12.5295 13.799 12.9343 13.6413 13.3817 13.5348C13.8292 13.4283 14.2852 13.3473 14.7496 13.2919C15.3377 13.2237 15.815 13.1683 16.1815 13.1257C16.5479 13.0788 16.8143 13.0043 16.9805 12.902C17.1467 12.7997 17.2298 12.6335 17.2298 12.4034V12.3587C17.2298 11.8004 17.0721 11.3679 16.7567 11.0611C16.4457 10.7543 15.9812 10.6009 15.3633 10.6009C14.7198 10.6009 14.2127 10.7436 13.842 11.0291C13.4755 11.3104 13.2219 11.6236 13.0813 11.9688L11.2852 11.5597C11.4982 10.9631 11.8093 10.4815 12.2184 10.1151C12.6317 9.74432 13.1069 9.47585 13.6438 9.30966C14.1808 9.1392 14.7454 9.05398 15.3377 9.05398C15.7298 9.05398 16.1452 9.10085 16.5842 9.1946C17.0273 9.28409 17.4407 9.45028 17.8242 9.69318C18.212 9.93608 18.5295 10.2834 18.7766 10.7351C19.0238 11.1825 19.1474 11.7642 19.1474 12.4801V19H17.2809V17.6577H17.2042C17.0806 17.9048 16.8952 18.1477 16.6481 18.3864C16.4009 18.625 16.0835 18.8232 15.6957 18.9808C15.3079 19.1385 14.8434 19.2173 14.3022 19.2173ZM14.7177 17.6832C15.2461 17.6832 15.6978 17.5788 16.0728 17.37C16.4521 17.1612 16.7397 16.8885 16.9357 16.5518C17.136 16.2109 17.2362 15.8466 17.2362 15.4588V14.1932C17.168 14.2614 17.0359 14.3253 16.8398 14.3849C16.6481 14.4403 16.4286 14.4893 16.1815 14.532C15.9343 14.5703 15.6935 14.6065 15.4592 14.6406C15.2248 14.6705 15.0288 14.696 14.8711 14.7173C14.5004 14.7642 14.1616 14.843 13.8548 14.9538C13.5522 15.0646 13.3093 15.2244 13.1261 15.4332C12.9471 15.6378 12.8576 15.9105 12.8576 16.2514C12.8576 16.7244 13.0323 17.0824 13.3817 17.3253C13.7312 17.5639 14.1765 17.6832 14.7177 17.6832ZM23.4508 15.6697L23.438 13.3366H23.7704L27.6824 9.18182H29.9707L25.5091 13.9119H25.2086L23.4508 15.6697ZM21.693 19V5.90909H23.6042V19H21.693ZM27.8933 19L24.3777 14.3338L25.6944 12.9979L30.2392 19H27.8933ZM39.0698 11.5788L37.3375 11.8857C37.2651 11.6641 37.15 11.4531 36.9924 11.2528C36.839 11.0526 36.6301 10.8885 36.3659 10.7607C36.1017 10.6328 35.7715 10.5689 35.3752 10.5689C34.834 10.5689 34.3823 10.6903 34.0201 10.9332C33.6578 11.1719 33.4767 11.4808 33.4767 11.8601C33.4767 12.1882 33.5982 12.4524 33.8411 12.6527C34.084 12.853 34.476 13.017 35.0172 13.1449L36.5769 13.5028C37.4803 13.7116 38.1536 14.0334 38.5968 14.468C39.04 14.9027 39.2615 15.4673 39.2615 16.1619C39.2615 16.75 39.0911 17.2741 38.7502 17.7344C38.4135 18.1903 37.9426 18.5483 37.3375 18.8082C36.7367 19.0682 36.04 19.1982 35.2473 19.1982C34.1479 19.1982 33.2509 18.9638 32.5563 18.495C31.8617 18.022 31.4355 17.3509 31.2779 16.4815L33.1252 16.2003C33.2402 16.6818 33.4767 17.0462 33.8347 17.2933C34.1926 17.5362 34.6593 17.6577 35.2346 17.6577C35.861 17.6577 36.3617 17.5277 36.7367 17.2678C37.1117 17.0036 37.2992 16.6818 37.2992 16.3026C37.2992 15.9957 37.1841 15.7379 36.954 15.5291C36.7282 15.3203 36.3809 15.1626 35.9121 15.0561L34.2502 14.6918C33.334 14.483 32.6564 14.1506 32.2175 13.6946C31.7828 13.2386 31.5655 12.6612 31.5655 11.9624C31.5655 11.3828 31.7275 10.8757 32.0513 10.4411C32.3752 10.0064 32.8226 9.66761 33.3936 9.42472C33.9647 9.17756 34.6188 9.05398 35.356 9.05398C36.4171 9.05398 37.2523 9.28409 37.8617 9.74432C38.4711 10.2003 38.8738 10.8118 39.0698 11.5788ZM43.2741 13.1705V19H41.3629V5.90909H43.2486V10.7798H43.37C43.6001 10.2514 43.9517 9.83168 44.4247 9.5206C44.8977 9.20952 45.5156 9.05398 46.2784 9.05398C46.9517 9.05398 47.5398 9.19247 48.0426 9.46946C48.5497 9.74645 48.9418 10.1598 49.2188 10.7095C49.5 11.255 49.6406 11.9368 49.6406 12.755V19H47.7294V12.9851C47.7294 12.2649 47.544 11.7067 47.1733 11.3104C46.8026 10.9098 46.2869 10.7095 45.6264 10.7095C45.1747 10.7095 44.7699 10.8054 44.4119 10.9972C44.0582 11.1889 43.7791 11.4702 43.5746 11.8409C43.3743 12.2074 43.2741 12.6506 43.2741 13.1705ZM55.0483 19.2173C54.4261 19.2173 53.8636 19.1023 53.3608 18.8722C52.858 18.6378 52.4595 18.299 52.1655 17.8558C51.8757 17.4126 51.7308 16.8693 51.7308 16.2259C51.7308 15.6719 51.8374 15.2159 52.0504 14.858C52.2635 14.5 52.5511 14.2166 52.9134 14.0078C53.2756 13.799 53.6804 13.6413 54.1278 13.5348C54.5753 13.4283 55.0313 13.3473 55.4957 13.2919C56.0838 13.2237 56.5611 13.1683 56.9276 13.1257C57.294 13.0788 57.5604 13.0043 57.7266 12.902C57.8928 12.7997 57.9759 12.6335 57.9759 12.4034V12.3587C57.9759 11.8004 57.8182 11.3679 57.5028 11.0611C57.1918 10.7543 56.7273 10.6009 56.1094 10.6009C55.4659 10.6009 54.9588 10.7436 54.5881 11.0291C54.2216 11.3104 53.968 11.6236 53.8274 11.9688L52.0312 11.5597C52.2443 10.9631 52.5554 10.4815 52.9645 10.1151C53.3778 9.74432 53.853 9.47585 54.3899 9.30966C54.9268 9.1392 55.4915 9.05398 56.0838 9.05398C56.4759 9.05398 56.8913 9.10085 57.3303 9.1946C57.7734 9.28409 58.1868 9.45028 58.5703 9.69318C58.9581 9.93608 59.2756 10.2834 59.5227 10.7351C59.7699 11.1825 59.8935 11.7642 59.8935 12.4801V19H58.027V17.6577H57.9503C57.8267 17.9048 57.6413 18.1477 57.3942 18.3864C57.147 18.625 56.8295 18.8232 56.4418 18.9808C56.054 19.1385 55.5895 19.2173 55.0483 19.2173ZM55.4638 17.6832C55.9922 17.6832 56.4439 17.5788 56.8189 17.37C57.1982 17.1612 57.4858 16.8885 57.6818 16.5518C57.8821 16.2109 57.9822 15.8466 57.9822 15.4588V14.1932C57.9141 14.2614 57.782 14.3253 57.5859 14.3849C57.3942 14.4403 57.1747 14.4893 56.9276 14.532C56.6804 14.5703 56.4396 14.6065 56.2053 14.6406C55.9709 14.6705 55.7749 14.696 55.6172 14.7173C55.2464 14.7642 54.9077 14.843 54.6009 14.9538C54.2983 15.0646 54.0554 15.2244 53.8722 15.4332C53.6932 15.6378 53.6037 15.9105 53.6037 16.2514C53.6037 16.7244 53.7784 17.0824 54.1278 17.3253C54.4773 17.5639 54.9226 17.6832 55.4638 17.6832ZM66.1145 19.1918C65.3219 19.1918 64.6145 18.9893 63.9924 18.5845C63.3745 18.1754 62.8887 17.5937 62.535 16.8395C62.1855 16.081 62.0108 15.1712 62.0108 14.1101C62.0108 13.049 62.1877 12.1413 62.5414 11.3871C62.8993 10.6328 63.3894 10.0554 64.0115 9.65483C64.6337 9.25426 65.339 9.05398 66.1273 9.05398C66.7367 9.05398 67.2267 9.15625 67.5975 9.3608C67.9725 9.56108 68.2623 9.79545 68.4668 10.0639C68.6756 10.3324 68.8375 10.5689 68.9526 10.7734H69.0676V5.90909H70.9789V19H69.1124V17.4723H68.9526C68.8375 17.6811 68.6713 17.9197 68.454 18.1882C68.2409 18.4567 67.9469 18.6911 67.5719 18.8913C67.1969 19.0916 66.7111 19.1918 66.1145 19.1918ZM66.5364 17.5618C67.0861 17.5618 67.5506 17.4169 67.9299 17.1271C68.3134 16.8331 68.6032 16.4261 68.7992 15.9062C68.9995 15.3864 69.0996 14.7812 69.0996 14.0909C69.0996 13.4091 69.0016 12.8125 68.8056 12.3011C68.6096 11.7898 68.3219 11.3913 67.9426 11.1058C67.5634 10.8203 67.0946 10.6776 66.5364 10.6776C65.9611 10.6776 65.4817 10.8267 65.0982 11.125C64.7147 11.4233 64.4249 11.8303 64.2289 12.3459C64.0371 12.8615 63.9412 13.4432 63.9412 14.0909C63.9412 14.7472 64.0392 15.3374 64.2353 15.8615C64.4313 16.3857 64.7211 16.8011 65.1046 17.108C65.4924 17.4105 65.9696 17.5618 66.5364 17.5618ZM75.8352 19L72.946 9.18182H74.9212L76.8452 16.392H76.9411L78.8714 9.18182H80.8466L82.7642 16.3601H82.8601L84.7713 9.18182H86.7464L83.8636 19H81.9141L79.9197 11.9112H79.7727L77.7784 19H75.8352ZM92.4929 19.1982C91.5256 19.1982 90.6925 18.9915 89.9936 18.5781C89.299 18.1605 88.7621 17.5746 88.3828 16.8203C88.0078 16.0618 87.8203 15.1733 87.8203 14.1548C87.8203 13.1491 88.0078 12.2628 88.3828 11.4957C88.7621 10.7287 89.2905 10.13 89.968 9.69957C90.6499 9.26918 91.4467 9.05398 92.3587 9.05398C92.9126 9.05398 93.4496 9.1456 93.9695 9.32884C94.4893 9.51207 94.956 9.79972 95.3693 10.1918C95.7827 10.5838 96.1087 11.093 96.3473 11.7195C96.5859 12.3416 96.7053 13.098 96.7053 13.9886V14.6662H88.9006V13.2344H94.8324C94.8324 12.7315 94.7301 12.2862 94.5256 11.8984C94.321 11.5064 94.0334 11.1974 93.6626 10.9716C93.2962 10.7457 92.8658 10.6328 92.3714 10.6328C91.8345 10.6328 91.3658 10.7649 90.9652 11.0291C90.5689 11.2891 90.2621 11.63 90.0447 12.0518C89.8317 12.4695 89.7251 12.9233 89.7251 13.4134V14.532C89.7251 15.1882 89.8402 15.7464 90.0703 16.2067C90.3047 16.6669 90.6307 17.0185 91.0483 17.2614C91.4659 17.5 91.9538 17.6193 92.5121 17.6193C92.8743 17.6193 93.2045 17.5682 93.5028 17.4659C93.8011 17.3594 94.0589 17.2017 94.2763 16.9929C94.4936 16.7841 94.6598 16.5263 94.7749 16.2195L96.5838 16.5455C96.4389 17.0781 96.179 17.5447 95.804 17.9453C95.4332 18.3416 94.9666 18.6506 94.4041 18.8722C93.8459 19.0895 93.2088 19.1982 92.4929 19.1982ZM103.057 19.1982C102.09 19.1982 101.257 18.9915 100.558 18.5781C99.8635 18.1605 99.3265 17.5746 98.9473 16.8203C98.5723 16.0618 98.3848 15.1733 98.3848 14.1548C98.3848 13.1491 98.5723 12.2628 98.9473 11.4957C99.3265 10.7287 99.8549 10.13 100.532 9.69957C101.214 9.26918 102.011 9.05398 102.923 9.05398C103.477 9.05398 104.014 9.1456 104.534 9.32884C105.054 9.51207 105.52 9.79972 105.934 10.1918C106.347 10.5838 106.673 11.093 106.912 11.7195C107.15 12.3416 107.27 13.098 107.27 13.9886V14.6662H99.465V13.2344H105.397C105.397 12.7315 105.295 12.2862 105.09 11.8984C104.885 11.5064 104.598 11.1974 104.227 10.9716C103.861 10.7457 103.43 10.6328 102.936 10.6328C102.399 10.6328 101.93 10.7649 101.53 11.0291C101.133 11.2891 100.827 11.63 100.609 12.0518C100.396 12.4695 100.29 12.9233 100.29 13.4134V14.532C100.29 15.1882 100.405 15.7464 100.635 16.2067C100.869 16.6669 101.195 17.0185 101.613 17.2614C102.03 17.5 102.518 17.6193 103.077 17.6193C103.439 17.6193 103.769 17.5682 104.067 17.4659C104.366 17.3594 104.623 17.2017 104.841 16.9929C105.058 16.7841 105.224 16.5263 105.339 16.2195L107.148 16.5455C107.003 17.0781 106.743 17.5447 106.368 17.9453C105.998 18.3416 105.531 18.6506 104.969 18.8722C104.41 19.0895 103.773 19.1982 103.057 19.1982ZM109.39 22.6818V9.18182H111.257V10.7734H111.417C111.527 10.5689 111.687 10.3324 111.896 10.0639C112.105 9.79545 112.395 9.56108 112.765 9.3608C113.136 9.15625 113.626 9.05398 114.235 9.05398C115.028 9.05398 115.735 9.25426 116.358 9.65483C116.98 10.0554 117.468 10.6328 117.821 11.3871C118.179 12.1413 118.358 13.049 118.358 14.1101C118.358 15.1712 118.181 16.081 117.828 16.8395C117.474 17.5937 116.988 18.1754 116.37 18.5845C115.752 18.9893 115.047 19.1918 114.255 19.1918C113.658 19.1918 113.17 19.0916 112.791 18.8913C112.416 18.6911 112.122 18.4567 111.909 18.1882C111.696 17.9197 111.532 17.6811 111.417 17.4723H111.301V22.6818H109.39ZM111.263 14.0909C111.263 14.7812 111.363 15.3864 111.564 15.9062C111.764 16.4261 112.054 16.8331 112.433 17.1271C112.812 17.4169 113.277 17.5618 113.826 17.5618C114.397 17.5618 114.875 17.4105 115.258 17.108C115.642 16.8011 115.931 16.3857 116.127 15.8615C116.328 15.3374 116.428 14.7472 116.428 14.0909C116.428 13.4432 116.33 12.8615 116.134 12.3459C115.942 11.8303 115.652 11.4233 115.265 11.125C114.881 10.8267 114.402 10.6776 113.826 10.6776C113.272 10.6776 112.804 10.8203 112.42 11.1058C112.041 11.3913 111.753 11.7898 111.557 12.3011C111.361 12.8125 111.263 13.4091 111.263 14.0909Z" fill="black" fill-opacity="0.65"/>
</svg>
