<svg width="99" height="33" viewBox="0 0 99 33" fill="none" xmlns="http://www.w3.org/2000/svg">
<path d="M1.91761 25V7.54545H4.55114V22.733H12.4602V25H1.91761ZM20.7741 25.2642C19.5469 25.2642 18.4759 24.983 17.5611 24.4205C16.6463 23.858 15.9361 23.071 15.4304 22.0597C14.9247 21.0483 14.6719 19.8665 14.6719 18.5142C14.6719 17.1562 14.9247 15.9687 15.4304 14.9517C15.9361 13.9347 16.6463 13.1449 17.5611 12.5824C18.4759 12.0199 19.5469 11.7386 20.7741 11.7386C22.0014 11.7386 23.0724 12.0199 23.9872 12.5824C24.902 13.1449 25.6122 13.9347 26.1179 14.9517C26.6236 15.9687 26.8764 17.1562 26.8764 18.5142C26.8764 19.8665 26.6236 21.0483 26.1179 22.0597C25.6122 23.071 24.902 23.858 23.9872 24.4205C23.0724 24.983 22.0014 25.2642 20.7741 25.2642ZM20.7827 23.125C21.5781 23.125 22.2372 22.9148 22.7599 22.4943C23.2827 22.0739 23.669 21.5142 23.919 20.8153C24.1747 20.1165 24.3026 19.3466 24.3026 18.5057C24.3026 17.6705 24.1747 16.9034 23.919 16.2045C23.669 15.5 23.2827 14.9347 22.7599 14.5085C22.2372 14.0824 21.5781 13.8693 20.7827 13.8693C19.9815 13.8693 19.3168 14.0824 18.7884 14.5085C18.2656 14.9347 17.8764 15.5 17.6207 16.2045C17.3707 16.9034 17.2457 17.6705 17.2457 18.5057C17.2457 19.3466 17.3707 20.1165 17.6207 20.8153C17.8764 21.5142 18.2656 22.0739 18.7884 22.4943C19.3168 22.9148 19.9815 23.125 20.7827 23.125ZM35.2351 25.2642C33.968 25.2642 32.8771 24.9773 31.9624 24.4034C31.0533 23.8239 30.3544 23.0256 29.8658 22.0085C29.3771 20.9915 29.1328 19.8267 29.1328 18.5142C29.1328 17.1847 29.3828 16.0114 29.8828 14.9943C30.3828 13.9716 31.0874 13.1733 31.9964 12.5994C32.9055 12.0256 33.9766 11.7386 35.2095 11.7386C36.2038 11.7386 37.0902 11.9233 37.8686 12.2926C38.647 12.6562 39.2749 13.1676 39.7521 13.8267C40.2351 14.4858 40.522 15.2557 40.6129 16.1364H38.1328C37.9964 15.5227 37.6839 14.9943 37.1953 14.5511C36.7124 14.108 36.0646 13.8864 35.2521 13.8864C34.5419 13.8864 33.9197 14.0739 33.3857 14.4489C32.8572 14.8182 32.4453 15.3466 32.1499 16.0341C31.8544 16.7159 31.7067 17.5227 31.7067 18.4545C31.7067 19.4091 31.8516 20.233 32.1413 20.9261C32.4311 21.6193 32.8402 22.1562 33.3686 22.5369C33.9027 22.9176 34.5305 23.108 35.2521 23.108C35.7351 23.108 36.1726 23.0199 36.5646 22.8438C36.9624 22.6619 37.2947 22.4034 37.5618 22.0682C37.8345 21.733 38.0249 21.3295 38.1328 20.858H40.6129C40.522 21.7045 40.2464 22.4602 39.7862 23.125C39.326 23.7898 38.7095 24.3125 37.9368 24.6932C37.1697 25.0739 36.2692 25.2642 35.2351 25.2642ZM47.1477 25.2898C46.3182 25.2898 45.5682 25.1364 44.8977 24.8295C44.2273 24.517 43.696 24.0653 43.304 23.4744C42.9176 22.8835 42.7244 22.1591 42.7244 21.3011C42.7244 20.5625 42.8665 19.9545 43.1506 19.4773C43.4347 19 43.8182 18.6222 44.3011 18.3438C44.7841 18.0653 45.3239 17.8551 45.9205 17.7131C46.517 17.571 47.125 17.4631 47.7443 17.3892C48.5284 17.2983 49.1648 17.2244 49.6534 17.1676C50.142 17.1051 50.4972 17.0057 50.7188 16.8693C50.9403 16.733 51.0511 16.5114 51.0511 16.2045V16.1449C51.0511 15.4006 50.8409 14.8239 50.4205 14.4148C50.0057 14.0057 49.3864 13.8011 48.5625 13.8011C47.7045 13.8011 47.0284 13.9915 46.5341 14.3722C46.0455 14.7472 45.7074 15.1648 45.5199 15.625L43.125 15.0795C43.4091 14.2841 43.8239 13.642 44.3693 13.1534C44.9205 12.6591 45.554 12.3011 46.2699 12.0795C46.9858 11.8523 47.7386 11.7386 48.5284 11.7386C49.0511 11.7386 49.6051 11.8011 50.1903 11.9261C50.7813 12.0455 51.3324 12.267 51.8438 12.5909C52.3608 12.9148 52.7841 13.3778 53.1136 13.9801C53.4432 14.5767 53.608 15.3523 53.608 16.3068V25H51.1193V23.2102H51.017C50.8523 23.5398 50.6051 23.8636 50.2756 24.1818C49.946 24.5 49.5227 24.7642 49.0057 24.9744C48.4886 25.1847 47.8693 25.2898 47.1477 25.2898ZM47.7017 23.2443C48.4063 23.2443 49.0085 23.1051 49.5085 22.8267C50.0142 22.5483 50.3977 22.1847 50.6591 21.7358C50.9261 21.2812 51.0597 20.7955 51.0597 20.2784V18.5909C50.9688 18.6818 50.7926 18.767 50.5312 18.8466C50.2756 18.9205 49.983 18.9858 49.6534 19.0426C49.3239 19.0937 49.0028 19.142 48.6903 19.1875C48.3778 19.2273 48.1165 19.2614 47.9062 19.2898C47.4119 19.3523 46.9602 19.4574 46.5511 19.6051C46.1477 19.7528 45.8239 19.9659 45.5795 20.2443C45.3409 20.517 45.2216 20.8807 45.2216 21.3352C45.2216 21.9659 45.4545 22.4432 45.9205 22.767C46.3864 23.0852 46.9801 23.2443 47.7017 23.2443ZM63.1129 11.9091V13.9545H55.9624V11.9091H63.1129ZM57.88 8.77273H60.4283V21.1562C60.4283 21.6506 60.5021 22.0227 60.6499 22.2727C60.7976 22.517 60.9879 22.6847 61.2209 22.7756C61.4595 22.8608 61.718 22.9034 61.9964 22.9034C62.201 22.9034 62.38 22.8892 62.5334 22.8608C62.6868 22.8324 62.8061 22.8097 62.8913 22.7926L63.3516 24.8977C63.2038 24.9545 62.9936 25.0114 62.7209 25.0682C62.4482 25.1307 62.1072 25.1648 61.6982 25.1705C61.0277 25.1818 60.4027 25.0625 59.8232 24.8125C59.2436 24.5625 58.7749 24.1761 58.4169 23.6534C58.0589 23.1307 57.88 22.4744 57.88 21.6847V8.77273ZM65.9318 25V11.9091H68.4801V25H65.9318ZM67.2188 9.8892C66.7756 9.8892 66.3949 9.74148 66.0767 9.44602C65.7642 9.14489 65.608 8.78693 65.608 8.37216C65.608 7.9517 65.7642 7.59375 66.0767 7.29829C66.3949 6.99716 66.7756 6.84659 67.2188 6.84659C67.6619 6.84659 68.0398 6.99716 68.3523 7.29829C68.6705 7.59375 68.8295 7.9517 68.8295 8.37216C68.8295 8.78693 68.6705 9.14489 68.3523 9.44602C68.0398 9.74148 67.6619 9.8892 67.2188 9.8892ZM77.4226 25.2642C76.1953 25.2642 75.1243 24.983 74.2095 24.4205C73.2947 23.858 72.5845 23.071 72.0788 22.0597C71.5732 21.0483 71.3203 19.8665 71.3203 18.5142C71.3203 17.1562 71.5732 15.9687 72.0788 14.9517C72.5845 13.9347 73.2947 13.1449 74.2095 12.5824C75.1243 12.0199 76.1953 11.7386 77.4226 11.7386C78.6499 11.7386 79.7209 12.0199 80.6357 12.5824C81.5504 13.1449 82.2607 13.9347 82.7663 14.9517C83.272 15.9687 83.5249 17.1562 83.5249 18.5142C83.5249 19.8665 83.272 21.0483 82.7663 22.0597C82.2607 23.071 81.5504 23.858 80.6357 24.4205C79.7209 24.983 78.6499 25.2642 77.4226 25.2642ZM77.4311 23.125C78.2266 23.125 78.8857 22.9148 79.4084 22.4943C79.9311 22.0739 80.3175 21.5142 80.5675 20.8153C80.8232 20.1165 80.951 19.3466 80.951 18.5057C80.951 17.6705 80.8232 16.9034 80.5675 16.2045C80.3175 15.5 79.9311 14.9347 79.4084 14.5085C78.8857 14.0824 78.2266 13.8693 77.4311 13.8693C76.63 13.8693 75.9652 14.0824 75.4368 14.5085C74.9141 14.9347 74.5249 15.5 74.2692 16.2045C74.0192 16.9034 73.8942 17.6705 73.8942 18.5057C73.8942 19.3466 74.0192 20.1165 74.2692 20.8153C74.5249 21.5142 74.9141 22.0739 75.4368 22.4943C75.9652 22.9148 76.63 23.125 77.4311 23.125ZM88.9176 17.2273V25H86.3693V11.9091H88.8153V14.0398H88.9773C89.2784 13.3466 89.75 12.7898 90.392 12.3693C91.0398 11.9489 91.8551 11.7386 92.8381 11.7386C93.7301 11.7386 94.5114 11.9261 95.1818 12.3011C95.8523 12.6705 96.3722 13.2216 96.7415 13.9545C97.1108 14.6875 97.2955 15.5937 97.2955 16.6733V25H94.7472V16.9801C94.7472 16.0312 94.5 15.2898 94.0057 14.7557C93.5114 14.2159 92.8324 13.946 91.9688 13.946C91.3778 13.946 90.8523 14.0739 90.392 14.3295C89.9375 14.5852 89.5767 14.9602 89.3097 15.4545C89.0483 15.9432 88.9176 16.5341 88.9176 17.2273Z" fill="black"/>
</svg>
